<?xml version="1.0" encoding="UTF-8" standalone="no"?><!-- Generator: Gravit.io --><svg xmlns="http://www.w3.org/2000/svg" xmlns:xlink="http://www.w3.org/1999/xlink" style="isolation:isolate" viewBox="0 0 16 16" width="16pt" height="16pt"><defs><clipPath id="_clipPath_TokHUvGnGzvxcSV5pf0eOk4LGFJvrfom"><rect width="16" height="16"/></clipPath></defs><g clip-path="url(#_clipPath_TokHUvGnGzvxcSV5pf0eOk4LGFJvrfom)"><mask id="_mask_8LiiOVC4KpEck2jv1HY0DhRFDpZ8x0q6"><path d=" M 6 1 L 3 1 C 1.896 1 1 1.896 1 3 L 1 13 C 1 14.104 1.896 15 3 15 L 13 15 C 14.104 15 15 14.104 15 13 L 15 10 L 6 1 Z " fill="white" stroke="none"/></mask><path d=" M 6 1 L 3 1 C 1.896 1 1 1.896 1 3 L 1 13 C 1 14.104 1.896 15 3 15 L 13 15 C 14.104 15 15 14.104 15 13 L 15 10 L 6 1 Z " fill="rgb(0,0,0)" mask="url(#_mask_8LiiOVC4KpEck2jv1HY0DhRFDpZ8x0q6)" vector-effect="non-scaling-stroke" stroke-width="2" stroke="rgb(255,255,255)" stroke-linejoin="miter" stroke-linecap="square" stroke-miterlimit="3"/><path d=" M 6 1 L 3 1 C 1.896 1 1 1.896 1 3 L 1 13 C 1 14.104 1.896 15 3 15 L 13 15 C 14.104 15 15 14.104 15 13 L 15 10 L 6 1 Z " fill="rgb(0,0,0)"/><mask id="_mask_V5dO3aiVsVVISf49KL9MCGTe74VD06GH"><path d=" M 8.975 1 L 13 1 C 14.104 1 15 1.896 15 3 L 15 7.025 L 8.975 1 Z " fill="white" stroke="none"/></mask><path d=" M 8.975 1 L 13 1 C 14.104 1 15 1.896 15 3 L 15 7.025 L 8.975 1 Z " fill="rgb(0,0,0)" mask="url(#_mask_V5dO3aiVsVVISf49KL9MCGTe74VD06GH)" vector-effect="non-scaling-stroke" stroke-width="2" stroke="rgb(255,255,255)" stroke-linejoin="miter" stroke-linecap="square" stroke-miterlimit="3"/><path d=" M 8.975 1 L 13 1 C 14.104 1 15 1.896 15 3 L 15 7.025 L 8.975 1 Z " fill="rgb(0,0,0)"/></g></svg>