<?xml version="1.0" encoding="UTF-8" standalone="no"?><!-- Generator: Gravit.io --><svg xmlns="http://www.w3.org/2000/svg" xmlns:xlink="http://www.w3.org/1999/xlink" style="isolation:isolate" viewBox="0 0 32 32" width="32pt" height="32pt"><defs><clipPath id="_clipPath_wOUOM8usQwKSwsM7bv7oGBwDtsBTjBrk"><rect width="32" height="32"/></clipPath></defs><g clip-path="url(#_clipPath_wOUOM8usQwKSwsM7bv7oGBwDtsBTjBrk)"><mask id="_mask_SHk3FpTSPep0mZzYgwHdolDf0P7sB222"><path d=" M 11.714 1 L 5.286 1 C 2.92 1 1 2.92 1 5.286 L 1 26.714 C 1 29.08 2.92 31 5.286 31 L 26.714 31 C 29.08 31 31 29.08 31 26.714 L 31 20.286 L 11.714 1 Z " fill="white" stroke="none"/></mask><path d=" M 11.714 1 L 5.286 1 C 2.92 1 1 2.92 1 5.286 L 1 26.714 C 1 29.08 2.92 31 5.286 31 L 26.714 31 C 29.08 31 31 29.08 31 26.714 L 31 20.286 L 11.714 1 Z " fill="rgb(255,255,255)" mask="url(#_mask_SHk3FpTSPep0mZzYgwHdolDf0P7sB222)" vector-effect="non-scaling-stroke" stroke-width="2" stroke="rgb(0,0,0)" stroke-linejoin="miter" stroke-linecap="square" stroke-miterlimit="3"/><path d=" M 11.714 1 L 5.286 1 C 2.92 1 1 2.92 1 5.286 L 1 26.714 C 1 29.08 2.92 31 5.286 31 L 26.714 31 C 29.08 31 31 29.08 31 26.714 L 31 20.286 L 11.714 1 Z " fill="rgb(255,255,255)"/><mask id="_mask_cKMGefSQQIzs3DEoMDOkwU8xUgUxKRJU"><path d=" M 18.089 1 L 26.714 1 C 29.08 1 31 2.92 31 5.286 L 31 13.911 L 18.089 1 Z " fill="white" stroke="none"/></mask><path d=" M 18.089 1 L 26.714 1 C 29.08 1 31 2.92 31 5.286 L 31 13.911 L 18.089 1 Z " fill="rgb(255,255,255)" mask="url(#_mask_cKMGefSQQIzs3DEoMDOkwU8xUgUxKRJU)" vector-effect="non-scaling-stroke" stroke-width="2" stroke="rgb(0,0,0)" stroke-linejoin="miter" stroke-linecap="square" stroke-miterlimit="3"/><path d=" M 18.089 1 L 26.714 1 C 29.08 1 31 2.92 31 5.286 L 31 13.911 L 18.089 1 Z " fill="rgb(255,255,255)"/></g></svg>