<?xml version="1.0" encoding="UTF-8" standalone="no"?><!-- Generator: Gravit.io --><svg xmlns="http://www.w3.org/2000/svg" xmlns:xlink="http://www.w3.org/1999/xlink" style="isolation:isolate" viewBox="0 0 16 16" width="16pt" height="16pt"><defs><clipPath id="_clipPath_VJNaTJ5E2vowaP5GxOpEhABWdAPs7Z2r"><rect width="16" height="16"/></clipPath></defs><g clip-path="url(#_clipPath_VJNaTJ5E2vowaP5GxOpEhABWdAPs7Z2r)"><mask id="_mask_eYDByVaatSHt35WNjnZUj7FmCNtKmgfE"><path d=" M 6 1 L 3 1 C 1.896 1 1 1.896 1 3 L 1 13 C 1 14.104 1.896 15 3 15 L 13 15 C 14.104 15 15 14.104 15 13 L 15 10 L 6 1 Z " fill="white" stroke="none"/></mask><path d=" M 6 1 L 3 1 C 1.896 1 1 1.896 1 3 L 1 13 C 1 14.104 1.896 15 3 15 L 13 15 C 14.104 15 15 14.104 15 13 L 15 10 L 6 1 Z " fill="rgb(255,255,255)" mask="url(#_mask_eYDByVaatSHt35WNjnZUj7FmCNtKmgfE)" vector-effect="non-scaling-stroke" stroke-width="2" stroke="rgb(0,0,0)" stroke-linejoin="miter" stroke-linecap="square" stroke-miterlimit="3"/><path d=" M 6 1 L 3 1 C 1.896 1 1 1.896 1 3 L 1 13 C 1 14.104 1.896 15 3 15 L 13 15 C 14.104 15 15 14.104 15 13 L 15 10 L 6 1 Z " fill="rgb(255,255,255)"/><mask id="_mask_axOTy48ek2eeRpja7FPCNCOSqMJ9EHkb"><path d=" M 8.975 1 L 13 1 C 14.104 1 15 1.896 15 3 L 15 7.025 L 8.975 1 Z " fill="white" stroke="none"/></mask><path d=" M 8.975 1 L 13 1 C 14.104 1 15 1.896 15 3 L 15 7.025 L 8.975 1 Z " fill="rgb(255,255,255)" mask="url(#_mask_axOTy48ek2eeRpja7FPCNCOSqMJ9EHkb)" vector-effect="non-scaling-stroke" stroke-width="2" stroke="rgb(0,0,0)" stroke-linejoin="miter" stroke-linecap="square" stroke-miterlimit="3"/><path d=" M 8.975 1 L 13 1 C 14.104 1 15 1.896 15 3 L 15 7.025 L 8.975 1 Z " fill="rgb(255,255,255)"/></g></svg>