<?xml version="1.0" standalone="no"?><!-- Generator: Gravit.io --><svg xmlns="http://www.w3.org/2000/svg" xmlns:xlink="http://www.w3.org/1999/xlink" style="isolation:isolate" viewBox="0 0 16 16" width="16" height="16"><defs><clipPath id="_clipPath_SVIanEoVt7pt4oYJO99maI8KBYpetDFg"><rect width="16" height="16"/></clipPath></defs><g clip-path="url(#_clipPath_SVIanEoVt7pt4oYJO99maI8KBYpetDFg)"><path d=" M 14 10.41 L 14 13 C 14 13.27 13.89 13.52 13.71 13.71 C 13.52 13.89 13.27 14 13 14 L 3 14 C 2.73 14 2.48 13.89 2.29 13.71 C 2.11 13.52 2 13.27 2 13 L 2 3 C 2 2.73 2.11 2.48 2.29 2.29 C 2.48 2.11 2.73 2 3 2 L 5.59 2 L 14 10.41 L 14 10.41 Z  M 15 10 L 15 13 C 15 14.104 14.104 15 13 15 L 3 15 C 1.896 15 1 14.104 1 13 L 1 3 C 1 1.896 1.896 1 3 1 L 6 1 L 15 10 L 15 10 Z  M 8.975 1 L 13 1 C 14.104 1 15 1.896 15 3 L 15 7.025 L 8.975 1 Z " fill-rule="evenodd" fill="rgb(0,0,0)"/></g></svg>